<?xml version="1.0" encoding="UTF-8"?>
<svg  viewBox="0 0 42 48" version="1.1" xmlns="http://www.w3.org/2000/svg" xmlns:xlink="http://www.w3.org/1999/xlink">
    <!-- Generator: Sketch 49.2 (51160) - http://www.bohemiancoding.com/sketch -->
    <title>Android</title>
    <desc>Created with Sketch.</desc>
    <defs></defs>
    <g id="Page-1" stroke="none" stroke-width="1" fill="none" fill-rule="evenodd">
        <g id="Social-Icons---Isolated" transform="translate(-391.000000, -1287.000000)" fill="#95CF00">
            <path d="M417.727009,1296.6009 C416.935377,1296.6009 416.294532,1295.97719 416.294532,1295.20673 C416.294532,1294.43626 416.935377,1293.81538 417.727009,1293.81538 C418.518641,1293.81538 419.159486,1294.43626 419.159486,1295.20673 C419.159486,1295.97719 418.518641,1296.6009 417.727009,1296.6009 L417.727009,1296.6009 Z M406.272991,1296.6009 C405.481359,1296.6009 404.840514,1295.97719 404.840514,1295.20673 C404.840514,1294.43626 405.481359,1293.81538 406.272991,1293.81538 C407.064623,1293.81538 407.705468,1294.43626 407.705468,1295.20673 C407.705468,1295.97719 407.064623,1296.6009 406.272991,1296.6009 L406.272991,1296.6009 Z M418.573737,1291.01856 C422.62179,1292.85582 425.362055,1296.33562 425.362055,1300.31777 L398.637945,1300.31777 C398.637945,1296.33562 401.37821,1292.85582 405.429163,1291.01856 L404.892709,1290.23398 L404.359155,1289.46069 L403.170257,1287.72221 C403.025269,1287.50772 403.086164,1287.21985 403.303645,1287.07874 C403.524027,1286.93763 403.819801,1286.99408 403.967688,1287.20856 L405.243579,1289.07123 L405.780033,1289.85298 L406.322287,1290.64885 C408.047639,1289.99692 409.973074,1289.63285 412,1289.63285 C414.029826,1289.63285 415.952361,1289.99692 417.677713,1290.64885 L418.222867,1289.85298 L420.038111,1287.20856 C420.180199,1286.99408 420.478873,1286.93481 420.696355,1287.07874 C420.916736,1287.21985 420.97763,1287.50772 420.829743,1287.72221 L419.640845,1289.46069 L419.107291,1290.23398 L418.573737,1291.01856 Z M398.843828,1302.17478 L425.362055,1302.17478 L425.362055,1322.61329 C425.362055,1324.23606 424.010771,1325.55686 422.340514,1325.55686 L420.157001,1325.55686 C420.232394,1325.80239 420.275891,1326.05921 420.275891,1326.33015 L420.275891,1332.21447 C420.275891,1333.75258 418.991301,1335 417.408036,1335 C415.827672,1335 414.545982,1333.75258 414.545982,1332.21447 L414.545982,1326.33015 C414.545982,1326.05921 414.586578,1325.80239 414.659072,1325.55686 L409.340928,1325.55686 C409.413422,1325.80239 409.456918,1326.05921 409.456918,1326.33015 L409.456918,1332.21447 C409.456918,1333.75258 408.172328,1335 406.591964,1335 C405.011599,1335 403.727009,1333.75258 403.727009,1332.21447 L403.727009,1326.33015 C403.727009,1326.05921 403.767606,1325.80239 403.842999,1325.55686 L401.662386,1325.55686 C399.992129,1325.55686 398.637945,1324.23606 398.637945,1322.61329 L398.637945,1302.17478 L398.843828,1302.17478 Z M393.864954,1302.17478 C395.445319,1302.17478 396.727009,1303.42221 396.727009,1304.96031 L396.727009,1316.88418 C396.727009,1318.42229 395.445319,1319.66971 393.864954,1319.66971 C392.28169,1319.66971 391,1318.42229 391,1316.88418 L391,1304.96031 C391,1303.42221 392.28169,1302.17478 393.864954,1302.17478 Z M430.137945,1302.17478 C431.71831,1302.17478 433,1303.42221 433,1304.96031 L433,1316.88418 C433,1318.42229 431.71831,1319.66971 430.137945,1319.66971 C428.554681,1319.66971 427.272991,1318.42229 427.272991,1316.88418 L427.272991,1304.96031 C427.272991,1303.42221 428.554681,1302.17478 430.137945,1302.17478 Z" id="Android"></path>
        </g>
    </g>
</svg>