<?xml version="1.0" encoding="utf-8"?>
<!-- Generator: Adobe Illustrator 23.0.3, SVG Export Plug-In . SVG Version: 6.00 Build 0)  -->
<svg version="1.1" id="Layer_1" xmlns="http://www.w3.org/2000/svg" xmlns:xlink="http://www.w3.org/1999/xlink" x="0px" y="0px"
	 viewBox="0 0 69.6 69.6" style="enable-background:new 0 0 69.6 69.6;" xml:space="preserve">
<style type="text/css">
	.st0{fill:#28B0EE;}
	.st1{fill:#00A25F;}
	.st2{fill:#BBAA7C;}
	.st3{fill:#010101;}
	.st4{fill:#020202;}
	.st5{fill:#3ACE01;}
	.st6{fill:#040404;}
	.st7{fill:#050505;}
	.st8{fill:#00B3F6;}
	.st9{fill:#0456B8;}
	.st10{fill:#0354BD;}
	.st11{fill:#9FDA55;}
	.st12{fill:#FFAA0C;}
	.st13{fill:#E81D52;}
	.st14{fill:#FF563B;}
	.st15{fill:#F50028;}
	.st16{fill:#FFA116;}
	.st17{fill:url(#SVGID_1_);}
	.st18{fill:url(#SVGID_2_);}
	.st19{fill:url(#SVGID_3_);}
	.st20{fill:url(#SVGID_4_);}
	.st21{fill:url(#SVGID_5_);}
	.st22{fill:url(#SVGID_6_);}
	.st23{fill:url(#SVGID_7_);}
	.st24{fill:url(#SVGID_8_);}
	.st25{fill:url(#SVGID_9_);}
</style>
<g>
	<path d="M53.1,12.7c-2.2,0-4.3,1.9-4.3,4.2c-0.1,2.2,2,4.3,4.2,4.3c2.2,0.1,4.3-1.9,4.3-4.2C57.3,14.8,55.4,12.7,53.1,12.7z"/>
	<path d="M35.5,17.6c-9.1-0.1-16.8,7.4-17,16.7c-0.2,9.2,7.5,17.1,16.8,17.1c9.1,0.1,16.8-7.4,17-16.7
		C52.5,25.5,44.8,17.7,35.5,17.6z M35.5,45.6c-6,0.1-11.1-4.9-11.2-11c-0.1-6,4.9-11.1,11-11.2c6-0.1,11.1,4.9,11.2,11
		C46.6,40.4,41.6,45.5,35.5,45.6z"/>
	<path d="M68.2,20.4C68.1,9.5,60.4,1.8,49.4,1.7c-9.3-0.1-18.6-0.1-27.9,0C10.4,1.8,2.7,9.4,2.6,20.5c-0.1,9.3-0.1,18.6,0,27.9
		c0.1,11.1,7.8,18.8,18.9,18.8c4.6,0,9.2,0,13.8,0c4.7,0,9.4,0,14.1,0c11-0.1,18.7-7.8,18.8-18.7C68.3,39.2,68.3,29.8,68.2,20.4z
		 M62.4,48.3c-0.1,8-5,13.1-12.9,13.2c-9.5,0.2-19,0.2-28.4,0c-7.7-0.1-12.6-5.2-12.7-12.8c-0.2-9.5-0.2-19,0-28.4
		c0.1-7.7,5.2-12.6,12.8-12.7c9.4-0.2,18.8-0.1,28.2,0c7.9,0.1,12.9,5.2,13,13.1c0.1,4.7,0,9.4,0,14.1
		C62.5,39.2,62.5,43.7,62.4,48.3z"/>
</g>
</svg>
