<svg id="SvgjsSvg1001" width="288" height="288" xmlns="http://www.w3.org/2000/svg" version="1.1" xmlns:xlink="http://www.w3.org/1999/xlink" xmlns:svgjs="http://svgjs.com/svgjs"><defs id="SvgjsDefs1002"></defs><g id="SvgjsG1008" transform="matrix(1,0,0,1,0,0)"><svg xmlns="http://www.w3.org/2000/svg" enable-background="new 0 0 470 470" viewBox="0 0 470 470" width="288" height="288"><path d="M414.114,111.384H55.887c-7.107,0-12.89,5.782-12.89,12.89v189.84c0,7.107,5.782,12.89,12.89,12.89h358.227
		c7.107,0,12.89-5.782,12.89-12.89v-189.84C427.003,117.166,421.221,111.384,414.114,111.384z M413.003,313.004H56.997v-187.62
		h356.006V313.004z" fill="#5529ce" class="color000 svgShape"></path><path d="M453.111,338.25V108.798c0-12.832-10.439-23.271-23.271-23.271H40.16c-12.832,0-23.271,10.439-23.271,23.271V338.25H0
		v21.151c0,13.825,11.248,25.072,25.072,25.072h419.855c13.825,0,25.072-11.248,25.072-25.072V338.25H453.111z M30.889,108.798
		c0-5.112,4.159-9.271,9.271-9.271h389.68c5.112,0,9.271,4.159,9.271,9.271V338.25H30.889V108.798z M456,359.401
		c0,6.105-4.967,11.072-11.072,11.072H25.072c-6.105,0-11.072-4.967-11.072-11.072v-7.151h442V359.401z" fill="#5529ce" class="color000 svgShape"></path><rect width="150.752" height="14" x="95.556" y="147.559" fill="#5529ce" class="color000 svgShape"></rect><rect width="106.414" height="14" x="95.556" y="175.707" fill="#5529ce" class="color000 svgShape"></rect><rect width="210.167" height="14" x="95.556" y="203.856" fill="#5529ce" class="color000 svgShape"></rect><rect width="138.338" height="14" x="95.556" y="232.004" fill="#5529CE" class="color000 svgShape"></rect></svg></g></svg>