<?xml version="1.0" encoding="UTF-8" standalone="no"?> <svg width="32" height="32" viewBox="0 0 32 32" fill="none" xmlns="http://www.w3.org/2000/svg">
<path d="M29.12 24.9201L7.12 2.92011C6.7088 2.49719 6.17915 2.20872 5.6008 2.09269C5.02244 1.97666 4.42251 2.03852 3.88 2.27011C3.32684 2.48095 2.85083 2.85494 2.51508 3.3425C2.17933 3.83005 1.9997 4.40814 2 5.00011V29.0001C2 29.2653 2.10536 29.5197 2.29289 29.7072C2.48043 29.8948 2.73478 30.0001 3 30.0001H27C27.5832 29.9882 28.1502 29.8066 28.6317 29.4774C29.1132 29.1483 29.4884 28.6859 29.7112 28.1468C29.934 27.6078 29.9949 27.0155 29.8863 26.4424C29.7778 25.8693 29.5045 25.3403 29.1 24.9201H29.12ZM27.92 27.4001C27.8433 27.5759 27.7177 27.7259 27.5581 27.8323C27.3986 27.9387 27.2118 27.9969 27.02 28.0001H24V27.0001C24 26.7349 23.8946 26.4805 23.7071 26.293C23.5196 26.1055 23.2652 26.0001 23 26.0001C22.7348 26.0001 22.4804 26.1055 22.2929 26.293C22.1054 26.4805 22 26.7349 22 27.0001V28.0001H20V27.0001C20 26.7349 19.8946 26.4805 19.7071 26.293C19.5196 26.1055 19.2652 26.0001 19 26.0001C18.7348 26.0001 18.4804 26.1055 18.2929 26.293C18.1054 26.4805 18 26.7349 18 27.0001V28.0001H16V27.0001C16 26.7349 15.8946 26.4805 15.7071 26.293C15.5196 26.1055 15.2652 26.0001 15 26.0001C14.7348 26.0001 14.4804 26.1055 14.2929 26.293C14.1054 26.4805 14 26.7349 14 27.0001V28.0001H12V27.0001C12 26.7349 11.8946 26.4805 11.7071 26.293C11.5196 26.1055 11.2652 26.0001 11 26.0001C10.7348 26.0001 10.4804 26.1055 10.2929 26.293C10.1054 26.4805 10 26.7349 10 27.0001V28.0001H8V27.0001C8 26.7349 7.89464 26.4805 7.70711 26.293C7.51957 26.1055 7.26522 26.0001 7 26.0001C6.73478 26.0001 6.48043 26.1055 6.29289 26.293C6.10536 26.4805 6 26.7349 6 27.0001V28.0001H4V26.0001H5C5.26522 26.0001 5.51957 25.8948 5.70711 25.7072C5.89464 25.5197 6 25.2653 6 25.0001C6 24.7349 5.89464 24.4805 5.70711 24.293C5.51957 24.1055 5.26522 24.0001 5 24.0001H4V22.0001H5C5.26522 22.0001 5.51957 21.8948 5.70711 21.7072C5.89464 21.5197 6 21.2653 6 21.0001C6 20.7349 5.89464 20.4805 5.70711 20.293C5.51957 20.1055 5.26522 20.0001 5 20.0001H4V18.0001H5C5.26522 18.0001 5.51957 17.8948 5.70711 17.7072C5.89464 17.5197 6 17.2653 6 17.0001C6 16.7349 5.89464 16.4805 5.70711 16.293C5.51957 16.1055 5.26522 16.0001 5 16.0001H4V14.0001H5C5.26522 14.0001 5.51957 13.8948 5.70711 13.7072C5.89464 13.5197 6 13.2653 6 13.0001C6 12.7349 5.89464 12.4805 5.70711 12.293C5.51957 12.1055 5.26522 12.0001 5 12.0001H4V10.0001H5C5.26522 10.0001 5.51957 9.89476 5.70711 9.70722C5.89464 9.51968 6 9.26533 6 9.00011C6 8.7349 5.89464 8.48054 5.70711 8.29301C5.51957 8.10547 5.26522 8.00011 5 8.00011H4V5.00011C4.01119 4.81304 4.07472 4.63287 4.18335 4.48016C4.29198 4.32745 4.44134 4.20834 4.61439 4.1364C4.78745 4.06447 4.97723 4.04262 5.1621 4.07333C5.34698 4.10404 5.5195 4.18609 5.66 4.31011L27.71 26.3401C27.8498 26.4737 27.945 26.6472 27.9825 26.8369C28.0201 27.0266 27.9983 27.2233 27.92 27.4001V27.4001Z" fill="black"/>
<path d="M9.71 14.0001C9.57049 13.8596 9.39244 13.7638 9.1984 13.7246C9.00436 13.6854 8.80306 13.7047 8.62 13.7801C8.43738 13.8551 8.28105 13.9825 8.17072 14.1462C8.06039 14.3099 8.00099 14.5027 8 14.7001V23.0001C8 23.2653 8.10536 23.5196 8.29289 23.7072C8.48043 23.8947 8.73478 24.0001 9 24.0001H17.3C17.4978 23.9992 17.6909 23.9398 17.8548 23.8292C18.0188 23.7187 18.1463 23.562 18.2213 23.3789C18.2962 23.1959 18.3152 22.9948 18.2758 22.8009C18.2364 22.6071 18.1404 22.4293 18 22.2901L9.71 14.0001ZM10 22.0001V17.1101L14.89 22.0001H10Z" fill="black"/>
</svg>
