<svg id="SvgjsSvg1054" width="288" height="288" xmlns="http://www.w3.org/2000/svg" version="1.1" xmlns:xlink="http://www.w3.org/1999/xlink" xmlns:svgjs="http://svgjs.com/svgjs"><defs id="SvgjsDefs1055"></defs><g id="SvgjsG1056"><svg xmlns="http://www.w3.org/2000/svg" width="288" height="288" viewBox="0 0 104 89"><g fill="none" fill-rule="evenodd" stroke="#263238" stroke-linecap="round" stroke-linejoin="round" stroke-width="3.5" transform="translate(2 2)" class="colorStroke263238 svgStroke"><rect width="8" height="74" x="92" rx="4" fill="#5529ce" class="color000 svgShape"></rect><path d="M52,22.2792969 C52,22.2792969 76.1601562,22.2792969 92,2.04785156 L92,72 C75.9351563,51.9902344 52,51.9902344 52,51.9902344 L52,22.2792969 Z" fill="#5529ce" class="color000 svgShape"></path><rect width="40" height="36" x="12" y="19" rx="3" fill="#5529ce" class="color000 svgShape"></rect><path d="M10 49L5 49C2.23857625 49 0 46.76369 0 43.9980273L0 30.0019727C0 27.2394595 2.24419519 25 5 25L10 25M20.5 28L43.5 28M30 55L18 55 18 81.0007252C18 83.2132053 19.7889923 85 21.9958262 85L32.4243989 84.9999999C34.3526936 85 36.5622035 82.3296774 34.5478516 80 34.5478516 80 30 74.6191406 30 72.8208008 30 69.8348349 30 55 30 55z" fill="#5529ce" class="color000 svgShape"></path></g></svg></g></svg>