<svg width="0" height="0" class="hidden">
  <symbol xmlns="http://www.w3.org/2000/svg" viewBox="0 0 24 24" id="flutter">
    <path fill="none" d="M0 0h24v24H0z"></path>
    <path d="M14.597 10.684h2.828l-5.657 5.658 5.657 5.656h-2.828L8.94 16.34l5.657-5.657zm-.194-8.68h2.829L5.918 13.318l-1.414-1.414 9.9-9.9z" fill="#000"></path>
  </symbol>
  <symbol version="1.1" xmlns="http://www.w3.org/2000/svg" xmlns:xlink="http://www.w3.org/1999/xlink" preserveAspectRatio="xMidYMid" viewBox="0 0 256 256" id="kotlin">
    <defs>
      <linearGradient x1="26.599%" y1="146.559136%" x2="73.8446667%" y2="52.3813953%" id="linearGradient-1">
        <stop stop-color="#0095D5" offset="9.677%"></stop>
        <stop stop-color="#238AD9" offset="30.07%"></stop>
        <stop stop-color="#557BDE" offset="62.11%"></stop>
        <stop stop-color="#7472E2" offset="86.43%"></stop>
        <stop stop-color="#806EE3" offset="100%"></stop>
      </linearGradient>
      <linearGradient x1="13.9840532%" y1="37.1049231%" x2="68.682392%" y2="-13.5538462%" id="linearGradient-2">
        <stop stop-color="#0095D5" offset="11.83%"></stop>
        <stop stop-color="#3C83DC" offset="41.78%"></stop>
        <stop stop-color="#6D74E1" offset="69.62%"></stop>
        <stop stop-color="#806EE3" offset="83.33%"></stop>
      </linearGradient>
      <linearGradient x1="-16.8361667%" y1="91.9396667%" x2="76.2191667%" y2="-1.11566667%" id="linearGradient-3">
        <stop stop-color="#C757BC" offset="10.75%"></stop>
        <stop stop-color="#D0609A" offset="21.38%"></stop>
        <stop stop-color="#E1725C" offset="42.54%"></stop>
        <stop stop-color="#EE7E2F" offset="60.48%"></stop>
        <stop stop-color="#F58613" offset="74.3%"></stop>
        <stop stop-color="#F88909" offset="82.32%"></stop>
      </linearGradient>
    </defs>
    <g>
      <polygon fill="url(#linearGradient-1)" points="0 256 128.426667 127.573333 256 256"></polygon>
      <polygon fill="url(#linearGradient-2)" points="0 0 128.426667 0 0 138.666667"></polygon>
      <polygon fill="url(#linearGradient-3)" points="128.426667 0 0 135.253333 0 256 128.426667 127.573333 256 0"></polygon>
    </g>
  </symbol>
  <symbol version="1.1" xmlns="http://www.w3.org/2000/svg" xmlns:xlink="http://www.w3.org/1999/xlink" viewBox="0 0 42 48" id="android">
    <title>Android</title>
    <desc>Created with Sketch.</desc>
    <defs></defs>
    <g id="Page-1" stroke="none" stroke-width="1" fill="none" fill-rule="evenodd">
      <g id="Social-Icons---Isolated" transform="translate(-391.000000, -1287.000000)" fill="#95CF00">
        <path d="M417.727009,1296.6009 C416.935377,1296.6009 416.294532,1295.97719 416.294532,1295.20673 C416.294532,1294.43626 416.935377,1293.81538 417.727009,1293.81538 C418.518641,1293.81538 419.159486,1294.43626 419.159486,1295.20673 C419.159486,1295.97719 418.518641,1296.6009 417.727009,1296.6009 L417.727009,1296.6009 Z M406.272991,1296.6009 C405.481359,1296.6009 404.840514,1295.97719 404.840514,1295.20673 C404.840514,1294.43626 405.481359,1293.81538 406.272991,1293.81538 C407.064623,1293.81538 407.705468,1294.43626 407.705468,1295.20673 C407.705468,1295.97719 407.064623,1296.6009 406.272991,1296.6009 L406.272991,1296.6009 Z M418.573737,1291.01856 C422.62179,1292.85582 425.362055,1296.33562 425.362055,1300.31777 L398.637945,1300.31777 C398.637945,1296.33562 401.37821,1292.85582 405.429163,1291.01856 L404.892709,1290.23398 L404.359155,1289.46069 L403.170257,1287.72221 C403.025269,1287.50772 403.086164,1287.21985 403.303645,1287.07874 C403.524027,1286.93763 403.819801,1286.99408 403.967688,1287.20856 L405.243579,1289.07123 L405.780033,1289.85298 L406.322287,1290.64885 C408.047639,1289.99692 409.973074,1289.63285 412,1289.63285 C414.029826,1289.63285 415.952361,1289.99692 417.677713,1290.64885 L418.222867,1289.85298 L420.038111,1287.20856 C420.180199,1286.99408 420.478873,1286.93481 420.696355,1287.07874 C420.916736,1287.21985 420.97763,1287.50772 420.829743,1287.72221 L419.640845,1289.46069 L419.107291,1290.23398 L418.573737,1291.01856 Z M398.843828,1302.17478 L425.362055,1302.17478 L425.362055,1322.61329 C425.362055,1324.23606 424.010771,1325.55686 422.340514,1325.55686 L420.157001,1325.55686 C420.232394,1325.80239 420.275891,1326.05921 420.275891,1326.33015 L420.275891,1332.21447 C420.275891,1333.75258 418.991301,1335 417.408036,1335 C415.827672,1335 414.545982,1333.75258 414.545982,1332.21447 L414.545982,1326.33015 C414.545982,1326.05921 414.586578,1325.80239 414.659072,1325.55686 L409.340928,1325.55686 C409.413422,1325.80239 409.456918,1326.05921 409.456918,1326.33015 L409.456918,1332.21447 C409.456918,1333.75258 408.172328,1335 406.591964,1335 C405.011599,1335 403.727009,1333.75258 403.727009,1332.21447 L403.727009,1326.33015 C403.727009,1326.05921 403.767606,1325.80239 403.842999,1325.55686 L401.662386,1325.55686 C399.992129,1325.55686 398.637945,1324.23606 398.637945,1322.61329 L398.637945,1302.17478 L398.843828,1302.17478 Z M393.864954,1302.17478 C395.445319,1302.17478 396.727009,1303.42221 396.727009,1304.96031 L396.727009,1316.88418 C396.727009,1318.42229 395.445319,1319.66971 393.864954,1319.66971 C392.28169,1319.66971 391,1318.42229 391,1316.88418 L391,1304.96031 C391,1303.42221 392.28169,1302.17478 393.864954,1302.17478 Z M430.137945,1302.17478 C431.71831,1302.17478 433,1303.42221 433,1304.96031 L433,1316.88418 C433,1318.42229 431.71831,1319.66971 430.137945,1319.66971 C428.554681,1319.66971 427.272991,1318.42229 427.272991,1316.88418 L427.272991,1304.96031 C427.272991,1303.42221 428.554681,1302.17478 430.137945,1302.17478 Z" id="Android"></path>
      </g>
    </g>
  </symbol>
  <symbol version="1.1" xmlns="http://www.w3.org/2000/svg" xmlns:xlink="http://www.w3.org/1999/xlink" viewBox="0 0 11 20" id="arrow">
    <title>arrow_forward_ios</title>
    <desc>Created with Sketch.</desc>
    <g id="Icons" stroke="none" stroke-width="1" fill="none" fill-rule="evenodd">
      <g id="Rounded" transform="translate(-345.000000, -3434.000000)">
        <g id="Navigation" transform="translate(100.000000, 3378.000000)">
          <g id="-Round-/-Navigation-/-arrow_forward_ios" transform="translate(238.000000, 54.000000)">
            <g>
              <polygon id="Path" opacity="0.87" points="24 24 0 24 0 0 24 0"></polygon>
              <path d="M7.38,21.01 C7.87,21.5 8.66,21.5 9.15,21.01 L17.46,12.7 C17.85,12.31 17.85,11.68 17.46,11.29 L9.15,2.98 C8.66,2.49 7.87,2.49 7.38,2.98 C6.89,3.47 6.89,4.26 7.38,4.75 L14.62,12 L7.37,19.25 C6.89,19.73 6.89,20.53 7.38,21.01 Z" id="🔹-Icon-Color" fill="#1D1D1D"></path>
            </g>
          </g>
        </g>
      </g>
    </g>
  </symbol>
  <symbol version="1.1" id="insta" xmlns="http://www.w3.org/2000/svg" xmlns:xlink="http://www.w3.org/1999/xlink" x="0px" y="0px" xml:space="preserve" viewBox="0 0 69.6 69.6">
    <g>
      <path d="M53.1,12.7c-2.2,0-4.3,1.9-4.3,4.2c-0.1,2.2,2,4.3,4.2,4.3c2.2,0.1,4.3-1.9,4.3-4.2C57.3,14.8,55.4,12.7,53.1,12.7z"></path>
      <path d="M35.5,17.6c-9.1-0.1-16.8,7.4-17,16.7c-0.2,9.2,7.5,17.1,16.8,17.1c9.1,0.1,16.8-7.4,17-16.7
		C52.5,25.5,44.8,17.7,35.5,17.6z M35.5,45.6c-6,0.1-11.1-4.9-11.2-11c-0.1-6,4.9-11.1,11-11.2c6-0.1,11.1,4.9,11.2,11
		C46.6,40.4,41.6,45.5,35.5,45.6z"></path>
      <path d="M68.2,20.4C68.1,9.5,60.4,1.8,49.4,1.7c-9.3-0.1-18.6-0.1-27.9,0C10.4,1.8,2.7,9.4,2.6,20.5c-0.1,9.3-0.1,18.6,0,27.9
		c0.1,11.1,7.8,18.8,18.9,18.8c4.6,0,9.2,0,13.8,0c4.7,0,9.4,0,14.1,0c11-0.1,18.7-7.8,18.8-18.7C68.3,39.2,68.3,29.8,68.2,20.4z
		 M62.4,48.3c-0.1,8-5,13.1-12.9,13.2c-9.5,0.2-19,0.2-28.4,0c-7.7-0.1-12.6-5.2-12.7-12.8c-0.2-9.5-0.2-19,0-28.4
		c0.1-7.7,5.2-12.6,12.8-12.7c9.4-0.2,18.8-0.1,28.2,0c7.9,0.1,12.9,5.2,13,13.1c0.1,4.7,0,9.4,0,14.1
		C62.5,39.2,62.5,43.7,62.4,48.3z"></path>
    </g>
  </symbol>
  <symbol xmlns="http://www.w3.org/2000/svg" fill="none" stroke="currentColor" stroke-width="2" stroke-linecap="round" stroke-linejoin="round" viewBox="0 0 24 24" id="link">
    <path d="M10 13a5 5 0 0 0 7.54.54l3-3a5 5 0 0 0-7.07-7.07l-1.72 1.71"></path>
    <path d="M14 11a5 5 0 0 0-7.54-.54l-3 3a5 5 0 0 0 7.07 7.07l1.71-1.71"></path>
  </symbol>
  <symbol xmlns="http://www.w3.org/2000/svg" fill="none" stroke="currentColor" stroke-width="2" stroke-linecap="round" stroke-linejoin="round" viewBox="0 0 24 24" id="github">
    <path d="M9 19c-5 1.5-5-2.5-7-3m14 6v-3.87a3.37 3.37 0 0 0-.94-2.61c3.14-.35 6.44-1.54 6.44-7A5.44 5.44 0 0 0 20 4.77 5.07 5.07 0 0 0 19.91 1S18.73.65 16 2.48a13.38 13.38 0 0 0-7 0C6.27.65 5.09 1 5.09 1A5.07 5.07 0 0 0 5 4.77a5.44 5.44 0 0 0-1.5 3.78c0 5.42 3.3 6.61 6.44 7A3.37 3.37 0 0 0 9 18.13V22"></path>
  </symbol>
  <symbol id="download" xmlns="http://www.w3.org/2000/svg" viewBox="0 0 24 24">
    <title>cloud, download, storage, memory, data</title>
    <path d="M20.57,9.43A8,8,0,0,0,5.26,10,5,5,0,1,0,5,20h5V18H5a3,3,0,0,1,0-6,3.1,3.1,0,0,1,.79.12l1.12.31.14-1.15a6,6,0,0,1,11.74-.82l.15.54.54.16A3.46,3.46,0,0,1,22,14.5,3.5,3.5,0,0,1,18.5,18H16v2h2.5A5.48,5.48,0,0,0,20.57,9.43Z"></path>
    <polygon points="12 11 12 15.59 10.71 14.29 9.29 15.71 13 19.41 16.71 15.71 15.29 14.29 14 15.59 14 11 12 11"></polygon>
  </symbol>
  <symbol version="1.1" xmlns="http://www.w3.org/2000/svg" xmlns:xlink="http://www.w3.org/1999/xlink" viewBox="0 0 72 72" id="linked_in">
    <title>Linkedin</title>
    <desc>Created with Sketch.</desc>
    <defs></defs>
    <g id="Page-1" stroke="none" stroke-width="1" fill="none" fill-rule="evenodd">
      <g id="Social-Icons---Rounded-Black" transform="translate(-376.000000, -267.000000)">
        <g id="Linkedin" transform="translate(376.000000, 267.000000)">
          <path d="M8,72 L64,72 C68.418278,72 72,68.418278 72,64 L72,8 C72,3.581722 68.418278,-8.11624501e-16 64,0 L8,0 C3.581722,8.11624501e-16 -5.41083001e-16,3.581722 0,8 L0,64 C5.41083001e-16,68.418278 3.581722,72 8,72 Z" id="Rounded" fill="#000000"></path>
          <path d="M62,62 L51.315625,62 L51.315625,43.8021149 C51.315625,38.8127542 49.4197917,36.0245323 45.4707031,36.0245323 C41.1746094,36.0245323 38.9300781,38.9261103 38.9300781,43.8021149 L38.9300781,62 L28.6333333,62 L28.6333333,27.3333333 L38.9300781,27.3333333 L38.9300781,32.0029283 C38.9300781,32.0029283 42.0260417,26.2742151 49.3825521,26.2742151 C56.7356771,26.2742151 62,30.7644705 62,40.051212 L62,62 Z M16.349349,22.7940133 C12.8420573,22.7940133 10,19.9296567 10,16.3970067 C10,12.8643566 12.8420573,10 16.349349,10 C19.8566406,10 22.6970052,12.8643566 22.6970052,16.3970067 C22.6970052,19.9296567 19.8566406,22.7940133 16.349349,22.7940133 Z M11.0325521,62 L21.769401,62 L21.769401,27.3333333 L11.0325521,27.3333333 L11.0325521,62 Z" fill="#FFFFFF"></path>
        </g>
      </g>
    </g>
  </symbol>
  <symbol viewBox="0 0 0 0" id="sprite">
    <symbol xmlns="http://www.w3.org/2000/svg" viewBox="0 0 24 24" id="mobile">
      <defs></defs>
      <title>mobile-phone-2</title>
      <line x1="18.5" y1="19.5" x2="5.5" y2="19.5"></line>
      <path d="M12,20.75a.75.75,0,1,0,.75.75.749.749,0,0,0-.75-.75Z"></path>
      <rect x="5.5" y="0.5" width="13" height="23" rx="2" ry="2"></rect>
    </symbol>
    <symbol version="1.1" xmlns="http://www.w3.org/2000/svg" xmlns:xlink="http://www.w3.org/1999/xlink" preserveAspectRatio="xMidYMid" viewBox="0 0 256 256" id="dart">
      <g>
        <path d="M70.534,69.696 L53.988,53.15 L54.058,172.75 L54.256,178.34 C54.338,180.97 54.826,183.938 55.64,187.014 L186.744,233.244 L219.516,218.724 L219.528,218.684 L70.534,69.696" fill="#00D2B8"></path>
        <path d="M55.64,187.014 L55.648,187.022 C55.64,186.968 55.612,186.908 55.612,186.852 C55.612,186.908 55.62,186.96 55.64,187.014 L55.64,187.014 Z M219.516,218.724 L186.744,233.244 L55.648,187.022 C58.152,196.63 63.696,207.43 69.662,213.336 L112.446,255.876 L207.576,256 L219.528,218.684 L219.516,218.724 L219.516,218.724 Z" fill="#55DDCA"></path>
        <path d="M3.034,130.116 C-1.202,134.638 0.902,143.966 7.722,150.838 L37.14,180.5 L55.64,187.014 C54.826,183.938 54.338,180.97 54.256,178.34 L54.058,172.75 L53.988,53.15 L3.034,130.116 Z" fill="#0081C6"></path>
        <path d="M187.82,54.686 C184.744,53.9 181.794,53.414 179.12,53.33 L173.212,53.126 L53.988,53.142 L219.544,218.684 L219.558,218.684 L234.098,185.88 L187.82,54.686" fill="#0079B3"></path>
        <path d="M187.67,54.654 C187.734,54.668 187.784,54.686 187.826,54.692 L187.82,54.686 C187.784,54.668 187.734,54.668 187.67,54.654 L187.67,54.654 Z M214.118,68.732 C208.11,62.674 197.452,57.168 187.826,54.692 L234.098,185.88 L219.558,218.684 L219.544,218.684 L255.076,207.336 L255.152,109.92 L214.118,68.732 L214.118,68.732 Z" fill="#00A4E4"></path>
        <path d="M181.338,36.298 L151.684,6.862 C144.826,0.068 135.494,-2.046 130.984,2.178 L53.988,53.142 L173.212,53.126 L179.12,53.33 C181.794,53.414 184.744,53.9 187.82,54.686 L181.338,36.298 L181.338,36.298 Z" fill="#00D2B8"></path>
      </g>
    </symbol>
    <symbol version="1.1" xmlns="http://www.w3.org/2000/svg" xmlns:xlink="http://www.w3.org/1999/xlink" preserveAspectRatio="xMidYMid" viewBox="0 0 256 346" id="java">
      <g>
        <path d="M82.5539491,267.472524 C82.5539491,267.472524 69.35552,275.147869 91.9468218,277.745105 C119.315549,280.867375 133.303389,280.419607 163.463913,274.711273 C163.463913,274.711273 171.393396,279.683258 182.467491,283.989644 C114.855564,312.966982 29.4483782,282.311215 82.5539491,267.472524" fill="#5382A1"></path>
        <path d="M74.2921309,229.658996 C74.2921309,229.658996 59.4888145,240.616727 82.0968727,242.955171 C111.333004,245.971316 134.421411,246.218007 174.373236,238.524975 C174.373236,238.524975 179.899113,244.127185 188.588218,247.190807 C106.841367,271.094691 15.79008,249.075898 74.2921309,229.658996" fill="#5382A1"></path>
        <path d="M143.941818,165.514705 C160.601367,184.695156 139.564684,201.955142 139.564684,201.955142 C139.564684,201.955142 181.866124,180.117876 162.438982,152.772422 C144.294633,127.271098 130.380335,114.600495 205.706705,70.9138618 C205.706705,70.9138618 87.4691491,100.44416 143.941818,165.514705" fill="#E76F00"></path>
        <path d="M233.364015,295.441687 C233.364015,295.441687 243.131113,303.489396 222.60736,309.715316 C183.580858,321.537862 60.1748945,325.107898 25.8932364,310.186356 C13.5698618,304.825251 36.67968,297.385425 43.9491491,295.824291 C51.5304727,294.180305 55.8629236,294.486575 55.8629236,294.486575 C42.15808,284.832116 -32.7195927,313.443607 17.8287709,321.637469 C155.681513,343.993251 269.121164,311.570618 233.364015,295.441687" fill="#5382A1"></path>
        <path d="M88.9008873,190.479825 C88.9008873,190.479825 26.1287564,205.389265 66.6717091,210.803433 C83.7901964,213.095331 117.915462,212.576815 149.702284,209.913484 C175.680233,207.722124 201.765236,203.062924 201.765236,203.062924 C201.765236,203.062924 192.605091,206.985775 185.977949,211.510924 C122.233949,228.275665 -0.907636364,220.476509 34.5432436,203.328233 C64.5241018,188.83584 88.9008873,190.479825 88.9008873,190.479825" fill="#5382A1"></path>
        <path d="M201.506444,253.422313 C266.305164,219.7504 236.344785,187.392 215.432844,191.751447 C210.307258,192.818269 208.021876,193.742662 208.021876,193.742662 C208.021876,193.742662 209.924655,190.761891 213.558924,189.471651 C254.929455,174.927127 286.746065,232.368873 200.204102,255.11936 C200.204102,255.120291 201.206691,254.223825 201.506444,253.422313" fill="#5382A1"></path>
        <path d="M162.438982,0.371432727 C162.438982,0.371432727 198.325527,36.27008 128.402153,91.4720582 C72.3307055,135.753542 115.616116,161.001658 128.37888,189.848669 C95.6490473,160.318371 71.6297309,134.322735 87.7437673,110.128407 C111.395375,74.6132945 176.918342,57.3942691 162.438982,0.371432727" fill="#E76F00"></path>
        <path d="M95.2683055,344.665367 C157.466996,348.646865 252.980131,342.45632 255.24224,313.025629 C255.24224,313.025629 250.893964,324.182575 203.838371,333.042967 C150.750487,343.033484 85.2740655,341.867055 46.4393309,335.464262 C46.4402618,335.463331 54.3892945,342.043927 95.2683055,344.665367" fill="#5382A1"></path>
      </g>
    </symbol>
    <symbol xmlns="http://www.w3.org/2000/svg" aria-label="JavaScript" role="img" viewBox="0 0 512 512" id="js">
      <rect width="512" height="512" rx="15%" fill="#f7df1e"></rect>
      <path d="m324,370c10,17 24,29 47,29 20,0 33,-10 33,-24 0,-16 -13,-22 -35,-32l-12,-5c-35,-15 -58,-33 -58,-72 0,-36 27,-64 70,-64 31,0 53,11 68,39l-37,24c-8,-15 -17,-21 -31,-21 -14,0 -23,9 -23,21 0,14 9,20 30,29l12,5c41,18 64,35 64,76 0,43 -34,67 -80,67 -45,0 -74,-21 -88,-49zm-170,4c8,13 14,25 31,25 16,0 26,-6 26,-30V203h48v164c0,50 -29,72 -72,72 -39,0 -61,-20 -72,-44z"></path>
    </symbol>
    <symbol version="1.1" id="css" xmlns="http://www.w3.org/2000/svg" xmlns:xlink="http://www.w3.org/1999/xlink" x="0px" y="0px" xml:space="preserve" viewBox="0 0 512 512">
      <polygon points="32,0 72.8,460.8 256,512 439.136,460.832 480,0 "></polygon>
      <polygon points="392.768,150.688 387.616,208.576 372.064,382.112 256,414.208 255.904,414.24 
	139.904,382.112 131.808,291.36 188.64,291.36 192.864,338.432 255.936,355.456 255.968,355.424 319.136,338.4 327.744,259.968 
	129.088,260.512 123.456,206.88 332.512,204.416 336.736,147.008 117.856,147.616 114.176,94.208 256,94.208 397.824,94.208 "></polygon>
      <g></g>
      <g></g>
      <g></g>
      <g></g>
      <g></g>
      <g></g>
      <g></g>
      <g></g>
      <g></g>
      <g></g>
      <g></g>
      <g></g>
      <g></g>
      <g></g>
      <g></g>
    </symbol>
    <symbol version="1.1" id="html" xmlns="http://www.w3.org/2000/svg" xmlns:xlink="http://www.w3.org/1999/xlink" x="0px" y="0px" xml:space="preserve" viewBox="0 0 512 512">
      <polygon points="32,0 72.8,460.8 256,512 439.136,460.832 480,0 "></polygon>
      <polygon points="391.52,150.688 256,150.688 176.8,150.688 181.92,208.576 256,208.576 386.4,208.576 
	371.008,382.144 256,414.24 255.904,414.272 140.96,382.144 132.928,291.36 189.248,291.36 193.44,338.464 255.936,355.456 
	256,355.424 256,355.424 318.56,338.432 325.088,265.12 256,265.12 256,265.12 130.624,265.12 115.456,94.208 256,94.208 
	396.512,94.208 "></polygon>
      <g></g>
      <g></g>
      <g></g>
      <g></g>
      <g></g>
      <g></g>
      <g></g>
      <g></g>
      <g></g>
      <g></g>
      <g></g>
      <g></g>
      <g></g>
      <g></g>
      <g></g>
    </symbol>
    <symbol xmlns="http://www.w3.org/2000/svg" viewBox="0 0 24 24" id="flutter">
      <path fill="none" d="M0 0h24v24H0z"></path>
      <path d="M14.597 10.684h2.828l-5.657 5.658 5.657 5.656h-2.828L8.94 16.34l5.657-5.657zm-.194-8.68h2.829L5.918 13.318l-1.414-1.414 9.9-9.9z" fill="#000"></path>
    </symbol>
    <symbol version="1.1" xmlns="http://www.w3.org/2000/svg" xmlns:xlink="http://www.w3.org/1999/xlink" preserveAspectRatio="xMidYMid" viewBox="0 0 256 256" id="kotlin">
      <defs>
        <linearGradient x1="26.599%" y1="146.559136%" x2="73.8446667%" y2="52.3813953%" id="linearGradient-1">
          <stop stop-color="#0095D5" offset="9.677%"></stop>
          <stop stop-color="#238AD9" offset="30.07%"></stop>
          <stop stop-color="#557BDE" offset="62.11%"></stop>
          <stop stop-color="#7472E2" offset="86.43%"></stop>
          <stop stop-color="#806EE3" offset="100%"></stop>
        </linearGradient>
        <linearGradient x1="13.9840532%" y1="37.1049231%" x2="68.682392%" y2="-13.5538462%" id="linearGradient-2">
          <stop stop-color="#0095D5" offset="11.83%"></stop>
          <stop stop-color="#3C83DC" offset="41.78%"></stop>
          <stop stop-color="#6D74E1" offset="69.62%"></stop>
          <stop stop-color="#806EE3" offset="83.33%"></stop>
        </linearGradient>
        <linearGradient x1="-16.8361667%" y1="91.9396667%" x2="76.2191667%" y2="-1.11566667%" id="linearGradient-3">
          <stop stop-color="#C757BC" offset="10.75%"></stop>
          <stop stop-color="#D0609A" offset="21.38%"></stop>
          <stop stop-color="#E1725C" offset="42.54%"></stop>
          <stop stop-color="#EE7E2F" offset="60.48%"></stop>
          <stop stop-color="#F58613" offset="74.3%"></stop>
          <stop stop-color="#F88909" offset="82.32%"></stop>
        </linearGradient>
      </defs>
      <g>
        <polygon fill="url(#linearGradient-1)" points="0 256 128.426667 127.573333 256 256"></polygon>
        <polygon fill="url(#linearGradient-2)" points="0 0 128.426667 0 0 138.666667"></polygon>
        <polygon fill="url(#linearGradient-3)" points="128.426667 0 0 135.253333 0 256 128.426667 127.573333 256 0"></polygon>
      </g>
    </symbol>
    <symbol version="1.1" xmlns="http://www.w3.org/2000/svg" xmlns:xlink="http://www.w3.org/1999/xlink" viewBox="0 0 42 48" id="android">
      <title>Android</title>
      <desc>Created with Sketch.</desc>
      <defs></defs>
      <g id="Page-1" stroke="none" stroke-width="1" fill="none" fill-rule="evenodd">
        <g id="Social-Icons---Isolated" transform="translate(-391.000000, -1287.000000)" fill="#95CF00">
          <path d="M417.727009,1296.6009 C416.935377,1296.6009 416.294532,1295.97719 416.294532,1295.20673 C416.294532,1294.43626 416.935377,1293.81538 417.727009,1293.81538 C418.518641,1293.81538 419.159486,1294.43626 419.159486,1295.20673 C419.159486,1295.97719 418.518641,1296.6009 417.727009,1296.6009 L417.727009,1296.6009 Z M406.272991,1296.6009 C405.481359,1296.6009 404.840514,1295.97719 404.840514,1295.20673 C404.840514,1294.43626 405.481359,1293.81538 406.272991,1293.81538 C407.064623,1293.81538 407.705468,1294.43626 407.705468,1295.20673 C407.705468,1295.97719 407.064623,1296.6009 406.272991,1296.6009 L406.272991,1296.6009 Z M418.573737,1291.01856 C422.62179,1292.85582 425.362055,1296.33562 425.362055,1300.31777 L398.637945,1300.31777 C398.637945,1296.33562 401.37821,1292.85582 405.429163,1291.01856 L404.892709,1290.23398 L404.359155,1289.46069 L403.170257,1287.72221 C403.025269,1287.50772 403.086164,1287.21985 403.303645,1287.07874 C403.524027,1286.93763 403.819801,1286.99408 403.967688,1287.20856 L405.243579,1289.07123 L405.780033,1289.85298 L406.322287,1290.64885 C408.047639,1289.99692 409.973074,1289.63285 412,1289.63285 C414.029826,1289.63285 415.952361,1289.99692 417.677713,1290.64885 L418.222867,1289.85298 L420.038111,1287.20856 C420.180199,1286.99408 420.478873,1286.93481 420.696355,1287.07874 C420.916736,1287.21985 420.97763,1287.50772 420.829743,1287.72221 L419.640845,1289.46069 L419.107291,1290.23398 L418.573737,1291.01856 Z M398.843828,1302.17478 L425.362055,1302.17478 L425.362055,1322.61329 C425.362055,1324.23606 424.010771,1325.55686 422.340514,1325.55686 L420.157001,1325.55686 C420.232394,1325.80239 420.275891,1326.05921 420.275891,1326.33015 L420.275891,1332.21447 C420.275891,1333.75258 418.991301,1335 417.408036,1335 C415.827672,1335 414.545982,1333.75258 414.545982,1332.21447 L414.545982,1326.33015 C414.545982,1326.05921 414.586578,1325.80239 414.659072,1325.55686 L409.340928,1325.55686 C409.413422,1325.80239 409.456918,1326.05921 409.456918,1326.33015 L409.456918,1332.21447 C409.456918,1333.75258 408.172328,1335 406.591964,1335 C405.011599,1335 403.727009,1333.75258 403.727009,1332.21447 L403.727009,1326.33015 C403.727009,1326.05921 403.767606,1325.80239 403.842999,1325.55686 L401.662386,1325.55686 C399.992129,1325.55686 398.637945,1324.23606 398.637945,1322.61329 L398.637945,1302.17478 L398.843828,1302.17478 Z M393.864954,1302.17478 C395.445319,1302.17478 396.727009,1303.42221 396.727009,1304.96031 L396.727009,1316.88418 C396.727009,1318.42229 395.445319,1319.66971 393.864954,1319.66971 C392.28169,1319.66971 391,1318.42229 391,1316.88418 L391,1304.96031 C391,1303.42221 392.28169,1302.17478 393.864954,1302.17478 Z M430.137945,1302.17478 C431.71831,1302.17478 433,1303.42221 433,1304.96031 L433,1316.88418 C433,1318.42229 431.71831,1319.66971 430.137945,1319.66971 C428.554681,1319.66971 427.272991,1318.42229 427.272991,1316.88418 L427.272991,1304.96031 C427.272991,1303.42221 428.554681,1302.17478 430.137945,1302.17478 Z" id="Android"></path>
        </g>
      </g>
    </symbol>
    <symbol version="1.1" xmlns="http://www.w3.org/2000/svg" xmlns:xlink="http://www.w3.org/1999/xlink" viewBox="0 0 11 20" id="arrow">
      <title>arrow_forward_ios</title>
      <desc>Created with Sketch.</desc>
      <g id="Icons" stroke="none" stroke-width="1" fill="none" fill-rule="evenodd">
        <g id="Rounded" transform="translate(-345.000000, -3434.000000)">
          <g id="Navigation" transform="translate(100.000000, 3378.000000)">
            <g id="-Round-/-Navigation-/-arrow_forward_ios" transform="translate(238.000000, 54.000000)">
              <g>
                <polygon id="Path" opacity="0.87" points="24 24 0 24 0 0 24 0"></polygon>
                <path d="M7.38,21.01 C7.87,21.5 8.66,21.5 9.15,21.01 L17.46,12.7 C17.85,12.31 17.85,11.68 17.46,11.29 L9.15,2.98 C8.66,2.49 7.87,2.49 7.38,2.98 C6.89,3.47 6.89,4.26 7.38,4.75 L14.62,12 L7.37,19.25 C6.89,19.73 6.89,20.53 7.38,21.01 Z" id="🔹-Icon-Color" fill="#1D1D1D"></path>
              </g>
            </g>
          </g>
        </g>
      </g>
    </symbol>
    <symbol version="1.1" id="insta" xmlns="http://www.w3.org/2000/svg" xmlns:xlink="http://www.w3.org/1999/xlink" x="0px" y="0px" xml:space="preserve" viewBox="0 0 69.6 69.6">
      <g>
        <path d="M53.1,12.7c-2.2,0-4.3,1.9-4.3,4.2c-0.1,2.2,2,4.3,4.2,4.3c2.2,0.1,4.3-1.9,4.3-4.2C57.3,14.8,55.4,12.7,53.1,12.7z"></path>
        <path d="M35.5,17.6c-9.1-0.1-16.8,7.4-17,16.7c-0.2,9.2,7.5,17.1,16.8,17.1c9.1,0.1,16.8-7.4,17-16.7
		C52.5,25.5,44.8,17.7,35.5,17.6z M35.5,45.6c-6,0.1-11.1-4.9-11.2-11c-0.1-6,4.9-11.1,11-11.2c6-0.1,11.1,4.9,11.2,11
		C46.6,40.4,41.6,45.5,35.5,45.6z"></path>
        <path d="M68.2,20.4C68.1,9.5,60.4,1.8,49.4,1.7c-9.3-0.1-18.6-0.1-27.9,0C10.4,1.8,2.7,9.4,2.6,20.5c-0.1,9.3-0.1,18.6,0,27.9
		c0.1,11.1,7.8,18.8,18.9,18.8c4.6,0,9.2,0,13.8,0c4.7,0,9.4,0,14.1,0c11-0.1,18.7-7.8,18.8-18.7C68.3,39.2,68.3,29.8,68.2,20.4z
		 M62.4,48.3c-0.1,8-5,13.1-12.9,13.2c-9.5,0.2-19,0.2-28.4,0c-7.7-0.1-12.6-5.2-12.7-12.8c-0.2-9.5-0.2-19,0-28.4
		c0.1-7.7,5.2-12.6,12.8-12.7c9.4-0.2,18.8-0.1,28.2,0c7.9,0.1,12.9,5.2,13,13.1c0.1,4.7,0,9.4,0,14.1
		C62.5,39.2,62.5,43.7,62.4,48.3z"></path>
      </g>
    </symbol>
    <symbol xmlns="http://www.w3.org/2000/svg" fill="none" stroke="currentColor" stroke-width="2" stroke-linecap="round" stroke-linejoin="round" viewBox="0 0 24 24" id="link">
      <path d="M10 13a5 5 0 0 0 7.54.54l3-3a5 5 0 0 0-7.07-7.07l-1.72 1.71"></path>
      <path d="M14 11a5 5 0 0 0-7.54-.54l-3 3a5 5 0 0 0 7.07 7.07l1.71-1.71"></path>
    </symbol>
    <symbol xmlns="http://www.w3.org/2000/svg" fill="none" stroke="currentColor" stroke-width="2" stroke-linecap="round" stroke-linejoin="round" viewBox="0 0 24 24" id="github">
      <path d="M9 19c-5 1.5-5-2.5-7-3m14 6v-3.87a3.37 3.37 0 0 0-.94-2.61c3.14-.35 6.44-1.54 6.44-7A5.44 5.44 0 0 0 20 4.77 5.07 5.07 0 0 0 19.91 1S18.73.65 16 2.48a13.38 13.38 0 0 0-7 0C6.27.65 5.09 1 5.09 1A5.07 5.07 0 0 0 5 4.77a5.44 5.44 0 0 0-1.5 3.78c0 5.42 3.3 6.61 6.44 7A3.37 3.37 0 0 0 9 18.13V22"></path>
    </symbol>
    <symbol id="download" xmlns="http://www.w3.org/2000/svg" viewBox="0 0 24 24">
      <title>cloud, download, storage, memory, data</title>
      <path d="M20.57,9.43A8,8,0,0,0,5.26,10,5,5,0,1,0,5,20h5V18H5a3,3,0,0,1,0-6,3.1,3.1,0,0,1,.79.12l1.12.31.14-1.15a6,6,0,0,1,11.74-.82l.15.54.54.16A3.46,3.46,0,0,1,22,14.5,3.5,3.5,0,0,1,18.5,18H16v2h2.5A5.48,5.48,0,0,0,20.57,9.43Z"></path>
      <polygon points="12 11 12 15.59 10.71 14.29 9.29 15.71 13 19.41 16.71 15.71 15.29 14.29 14 15.59 14 11 12 11"></polygon>
    </symbol>
    <symbol version="1.1" id="mouse" xmlns="http://www.w3.org/2000/svg" xmlns:xlink="http://www.w3.org/1999/xlink" x="0px" y="0px" enable-background="new 0 0 64 64" xml:space="preserve" viewBox="0 0 64 64">
      <path fill="none" stroke="#000000" stroke-width="2" stroke-miterlimit="10" d="M48,17c0-8.836-7.164-16-16-16S16,8.164,16,17v30
	c0,8.836,7.164,16,16,16s16-7.164,16-16V17z"></path>
      <line fill="none" stroke="#000000" stroke-width="2" stroke-miterlimit="10" x1="32" y1="10" x2="32" y2="18"></line>
    </symbol>
    <symbol fill="none" xmlns="http://www.w3.org/2000/svg" viewBox="0 0 32 32" id="ruler">
      <path d="M29.12 24.9201L7.12 2.92011C6.7088 2.49719 6.17915 2.20872 5.6008 2.09269C5.02244 1.97666 4.42251 2.03852 3.88 2.27011C3.32684 2.48095 2.85083 2.85494 2.51508 3.3425C2.17933 3.83005 1.9997 4.40814 2 5.00011V29.0001C2 29.2653 2.10536 29.5197 2.29289 29.7072C2.48043 29.8948 2.73478 30.0001 3 30.0001H27C27.5832 29.9882 28.1502 29.8066 28.6317 29.4774C29.1132 29.1483 29.4884 28.6859 29.7112 28.1468C29.934 27.6078 29.9949 27.0155 29.8863 26.4424C29.7778 25.8693 29.5045 25.3403 29.1 24.9201H29.12ZM27.92 27.4001C27.8433 27.5759 27.7177 27.7259 27.5581 27.8323C27.3986 27.9387 27.2118 27.9969 27.02 28.0001H24V27.0001C24 26.7349 23.8946 26.4805 23.7071 26.293C23.5196 26.1055 23.2652 26.0001 23 26.0001C22.7348 26.0001 22.4804 26.1055 22.2929 26.293C22.1054 26.4805 22 26.7349 22 27.0001V28.0001H20V27.0001C20 26.7349 19.8946 26.4805 19.7071 26.293C19.5196 26.1055 19.2652 26.0001 19 26.0001C18.7348 26.0001 18.4804 26.1055 18.2929 26.293C18.1054 26.4805 18 26.7349 18 27.0001V28.0001H16V27.0001C16 26.7349 15.8946 26.4805 15.7071 26.293C15.5196 26.1055 15.2652 26.0001 15 26.0001C14.7348 26.0001 14.4804 26.1055 14.2929 26.293C14.1054 26.4805 14 26.7349 14 27.0001V28.0001H12V27.0001C12 26.7349 11.8946 26.4805 11.7071 26.293C11.5196 26.1055 11.2652 26.0001 11 26.0001C10.7348 26.0001 10.4804 26.1055 10.2929 26.293C10.1054 26.4805 10 26.7349 10 27.0001V28.0001H8V27.0001C8 26.7349 7.89464 26.4805 7.70711 26.293C7.51957 26.1055 7.26522 26.0001 7 26.0001C6.73478 26.0001 6.48043 26.1055 6.29289 26.293C6.10536 26.4805 6 26.7349 6 27.0001V28.0001H4V26.0001H5C5.26522 26.0001 5.51957 25.8948 5.70711 25.7072C5.89464 25.5197 6 25.2653 6 25.0001C6 24.7349 5.89464 24.4805 5.70711 24.293C5.51957 24.1055 5.26522 24.0001 5 24.0001H4V22.0001H5C5.26522 22.0001 5.51957 21.8948 5.70711 21.7072C5.89464 21.5197 6 21.2653 6 21.0001C6 20.7349 5.89464 20.4805 5.70711 20.293C5.51957 20.1055 5.26522 20.0001 5 20.0001H4V18.0001H5C5.26522 18.0001 5.51957 17.8948 5.70711 17.7072C5.89464 17.5197 6 17.2653 6 17.0001C6 16.7349 5.89464 16.4805 5.70711 16.293C5.51957 16.1055 5.26522 16.0001 5 16.0001H4V14.0001H5C5.26522 14.0001 5.51957 13.8948 5.70711 13.7072C5.89464 13.5197 6 13.2653 6 13.0001C6 12.7349 5.89464 12.4805 5.70711 12.293C5.51957 12.1055 5.26522 12.0001 5 12.0001H4V10.0001H5C5.26522 10.0001 5.51957 9.89476 5.70711 9.70722C5.89464 9.51968 6 9.26533 6 9.00011C6 8.7349 5.89464 8.48054 5.70711 8.29301C5.51957 8.10547 5.26522 8.00011 5 8.00011H4V5.00011C4.01119 4.81304 4.07472 4.63287 4.18335 4.48016C4.29198 4.32745 4.44134 4.20834 4.61439 4.1364C4.78745 4.06447 4.97723 4.04262 5.1621 4.07333C5.34698 4.10404 5.5195 4.18609 5.66 4.31011L27.71 26.3401C27.8498 26.4737 27.945 26.6472 27.9825 26.8369C28.0201 27.0266 27.9983 27.2233 27.92 27.4001V27.4001Z" fill="black"></path>
      <path d="M9.71 14.0001C9.57049 13.8596 9.39244 13.7638 9.1984 13.7246C9.00436 13.6854 8.80306 13.7047 8.62 13.7801C8.43738 13.8551 8.28105 13.9825 8.17072 14.1462C8.06039 14.3099 8.00099 14.5027 8 14.7001V23.0001C8 23.2653 8.10536 23.5196 8.29289 23.7072C8.48043 23.8947 8.73478 24.0001 9 24.0001H17.3C17.4978 23.9992 17.6909 23.9398 17.8548 23.8292C18.0188 23.7187 18.1463 23.562 18.2213 23.3789C18.2962 23.1959 18.3152 22.9948 18.2758 22.8009C18.2364 22.6071 18.1404 22.4293 18 22.2901L9.71 14.0001ZM10 22.0001V17.1101L14.89 22.0001H10Z" fill="black"></path>
    </symbol>
    <symbol version="1.1" xmlns="http://www.w3.org/2000/svg" xmlns:xlink="http://www.w3.org/1999/xlink" viewBox="0 0 104 89" id="speaker">
      <title>17-multimeda-speaker-megaphone</title>
      <desc>Created with Sketch.</desc>
      <defs></defs>
      <g id="3.Multimedia" stroke="none" stroke-width="1" fill="none" fill-rule="evenodd" stroke-linecap="round" stroke-linejoin="round">
        <g id="Multimedia-(Stroke)" transform="translate(-1298.000000, -308.000000)" stroke="#263238" stroke-width="3.5">
          <g id="17-multimeda-speaker-megaphone" transform="translate(1300.000000, 310.000000)">
            <rect id="Layer-1" x="92" y="0" width="8" height="74" rx="4"></rect>
            <path d="M52,22.2792969 C52,22.2792969 76.1601562,22.2792969 92,2.04785156 L92,72 C75.9351563,51.9902344 52,51.9902344 52,51.9902344 L52,22.2792969 Z" id="Layer-2"></path>
            <rect id="Layer-3" x="12" y="19" width="40" height="36" rx="3"></rect>
            <path d="M10,49 L5,49 C2.23857625,49 0,46.76369 0,43.9980273 L0,30.0019727 C0,27.2394595 2.24419519,25 5,25 L10,25" id="Layer-4"></path>
            <path d="M20.5,28 L43.5,28" id="Layer-5"></path>
            <path d="M30,55 L18,55 L18,81.0007252 C18,83.2132053 19.7889923,85 21.9958262,85 L32.4243989,84.9999999 C34.3526936,85 36.5622035,82.3296774 34.5478516,80 C34.5478516,80 30,74.6191406 30,72.8208008 C30,69.8348349 30,55 30,55 Z" id="Layer-6"></path>
          </g>
        </g>
      </g>
    </symbol>
  </symbol>
  <symbol version="1.1" id="mouse" xmlns="http://www.w3.org/2000/svg" xmlns:xlink="http://www.w3.org/1999/xlink" x="0px" y="0px" enable-background="new 0 0 64 64" xml:space="preserve" viewBox="0 0 64 64">
    <path fill="none" stroke="#000000" stroke-width="2" stroke-miterlimit="10" d="M48,17c0-8.836-7.164-16-16-16S16,8.164,16,17v30
	c0,8.836,7.164,16,16,16s16-7.164,16-16V17z"></path>
    <line fill="none" stroke="#000000" stroke-width="2" stroke-miterlimit="10" x1="32" y1="10" x2="32" y2="18"></line>
  </symbol>
  <symbol fill="none" xmlns="http://www.w3.org/2000/svg" viewBox="0 0 32 32" id="ruler">
    <path d="M29.12 24.9201L7.12 2.92011C6.7088 2.49719 6.17915 2.20872 5.6008 2.09269C5.02244 1.97666 4.42251 2.03852 3.88 2.27011C3.32684 2.48095 2.85083 2.85494 2.51508 3.3425C2.17933 3.83005 1.9997 4.40814 2 5.00011V29.0001C2 29.2653 2.10536 29.5197 2.29289 29.7072C2.48043 29.8948 2.73478 30.0001 3 30.0001H27C27.5832 29.9882 28.1502 29.8066 28.6317 29.4774C29.1132 29.1483 29.4884 28.6859 29.7112 28.1468C29.934 27.6078 29.9949 27.0155 29.8863 26.4424C29.7778 25.8693 29.5045 25.3403 29.1 24.9201H29.12ZM27.92 27.4001C27.8433 27.5759 27.7177 27.7259 27.5581 27.8323C27.3986 27.9387 27.2118 27.9969 27.02 28.0001H24V27.0001C24 26.7349 23.8946 26.4805 23.7071 26.293C23.5196 26.1055 23.2652 26.0001 23 26.0001C22.7348 26.0001 22.4804 26.1055 22.2929 26.293C22.1054 26.4805 22 26.7349 22 27.0001V28.0001H20V27.0001C20 26.7349 19.8946 26.4805 19.7071 26.293C19.5196 26.1055 19.2652 26.0001 19 26.0001C18.7348 26.0001 18.4804 26.1055 18.2929 26.293C18.1054 26.4805 18 26.7349 18 27.0001V28.0001H16V27.0001C16 26.7349 15.8946 26.4805 15.7071 26.293C15.5196 26.1055 15.2652 26.0001 15 26.0001C14.7348 26.0001 14.4804 26.1055 14.2929 26.293C14.1054 26.4805 14 26.7349 14 27.0001V28.0001H12V27.0001C12 26.7349 11.8946 26.4805 11.7071 26.293C11.5196 26.1055 11.2652 26.0001 11 26.0001C10.7348 26.0001 10.4804 26.1055 10.2929 26.293C10.1054 26.4805 10 26.7349 10 27.0001V28.0001H8V27.0001C8 26.7349 7.89464 26.4805 7.70711 26.293C7.51957 26.1055 7.26522 26.0001 7 26.0001C6.73478 26.0001 6.48043 26.1055 6.29289 26.293C6.10536 26.4805 6 26.7349 6 27.0001V28.0001H4V26.0001H5C5.26522 26.0001 5.51957 25.8948 5.70711 25.7072C5.89464 25.5197 6 25.2653 6 25.0001C6 24.7349 5.89464 24.4805 5.70711 24.293C5.51957 24.1055 5.26522 24.0001 5 24.0001H4V22.0001H5C5.26522 22.0001 5.51957 21.8948 5.70711 21.7072C5.89464 21.5197 6 21.2653 6 21.0001C6 20.7349 5.89464 20.4805 5.70711 20.293C5.51957 20.1055 5.26522 20.0001 5 20.0001H4V18.0001H5C5.26522 18.0001 5.51957 17.8948 5.70711 17.7072C5.89464 17.5197 6 17.2653 6 17.0001C6 16.7349 5.89464 16.4805 5.70711 16.293C5.51957 16.1055 5.26522 16.0001 5 16.0001H4V14.0001H5C5.26522 14.0001 5.51957 13.8948 5.70711 13.7072C5.89464 13.5197 6 13.2653 6 13.0001C6 12.7349 5.89464 12.4805 5.70711 12.293C5.51957 12.1055 5.26522 12.0001 5 12.0001H4V10.0001H5C5.26522 10.0001 5.51957 9.89476 5.70711 9.70722C5.89464 9.51968 6 9.26533 6 9.00011C6 8.7349 5.89464 8.48054 5.70711 8.29301C5.51957 8.10547 5.26522 8.00011 5 8.00011H4V5.00011C4.01119 4.81304 4.07472 4.63287 4.18335 4.48016C4.29198 4.32745 4.44134 4.20834 4.61439 4.1364C4.78745 4.06447 4.97723 4.04262 5.1621 4.07333C5.34698 4.10404 5.5195 4.18609 5.66 4.31011L27.71 26.3401C27.8498 26.4737 27.945 26.6472 27.9825 26.8369C28.0201 27.0266 27.9983 27.2233 27.92 27.4001V27.4001Z" fill="black"></path>
    <path d="M9.71 14.0001C9.57049 13.8596 9.39244 13.7638 9.1984 13.7246C9.00436 13.6854 8.80306 13.7047 8.62 13.7801C8.43738 13.8551 8.28105 13.9825 8.17072 14.1462C8.06039 14.3099 8.00099 14.5027 8 14.7001V23.0001C8 23.2653 8.10536 23.5196 8.29289 23.7072C8.48043 23.8947 8.73478 24.0001 9 24.0001H17.3C17.4978 23.9992 17.6909 23.9398 17.8548 23.8292C18.0188 23.7187 18.1463 23.562 18.2213 23.3789C18.2962 23.1959 18.3152 22.9948 18.2758 22.8009C18.2364 22.6071 18.1404 22.4293 18 22.2901L9.71 14.0001ZM10 22.0001V17.1101L14.89 22.0001H10Z" fill="black"></path>
  </symbol>
  <symbol version="1.1" xmlns="http://www.w3.org/2000/svg" xmlns:xlink="http://www.w3.org/1999/xlink" viewBox="0 0 104 89" id="speaker">
    <title>17-multimeda-speaker-megaphone</title>
    <desc>Created with Sketch.</desc>
    <defs></defs>
    <g id="3.Multimedia" stroke="none" stroke-width="1" fill="none" fill-rule="evenodd" stroke-linecap="round" stroke-linejoin="round">
      <g id="Multimedia-(Stroke)" transform="translate(-1298.000000, -308.000000)" stroke="#263238" stroke-width="3.5">
        <g id="17-multimeda-speaker-megaphone" transform="translate(1300.000000, 310.000000)">
          <rect id="Layer-1" x="92" y="0" width="8" height="74" rx="4"></rect>
          <path d="M52,22.2792969 C52,22.2792969 76.1601562,22.2792969 92,2.04785156 L92,72 C75.9351563,51.9902344 52,51.9902344 52,51.9902344 L52,22.2792969 Z" id="Layer-2"></path>
          <rect id="Layer-3" x="12" y="19" width="40" height="36" rx="3"></rect>
          <path d="M10,49 L5,49 C2.23857625,49 0,46.76369 0,43.9980273 L0,30.0019727 C0,27.2394595 2.24419519,25 5,25 L10,25" id="Layer-4"></path>
          <path d="M20.5,28 L43.5,28" id="Layer-5"></path>
          <path d="M30,55 L18,55 L18,81.0007252 C18,83.2132053 19.7889923,85 21.9958262,85 L32.4243989,84.9999999 C34.3526936,85 36.5622035,82.3296774 34.5478516,80 C34.5478516,80 30,74.6191406 30,72.8208008 C30,69.8348349 30,55 30,55 Z" id="Layer-6"></path>
        </g>
      </g>
    </g>
  </symbol>
  <symbol xmlns="http://www.w3.org/2000/svg" viewBox="0 0 24 24" id="mobile">
    <defs></defs>
    <title>mobile-phone-2</title>
    <line x1="18.5" y1="19.5" x2="5.5" y2="19.5"></line>
    <path d="M12,20.75a.75.75,0,1,0,.75.75.749.749,0,0,0-.75-.75Z"></path>
    <rect x="5.5" y="0.5" width="13" height="23" rx="2" ry="2"></rect>
  </symbol>
  <symbol version="1.1" xmlns="http://www.w3.org/2000/svg" xmlns:xlink="http://www.w3.org/1999/xlink" preserveAspectRatio="xMidYMid" viewBox="0 0 256 256" id="dart">
    <g>
      <path d="M70.534,69.696 L53.988,53.15 L54.058,172.75 L54.256,178.34 C54.338,180.97 54.826,183.938 55.64,187.014 L186.744,233.244 L219.516,218.724 L219.528,218.684 L70.534,69.696" fill="#00D2B8"></path>
      <path d="M55.64,187.014 L55.648,187.022 C55.64,186.968 55.612,186.908 55.612,186.852 C55.612,186.908 55.62,186.96 55.64,187.014 L55.64,187.014 Z M219.516,218.724 L186.744,233.244 L55.648,187.022 C58.152,196.63 63.696,207.43 69.662,213.336 L112.446,255.876 L207.576,256 L219.528,218.684 L219.516,218.724 L219.516,218.724 Z" fill="#55DDCA"></path>
      <path d="M3.034,130.116 C-1.202,134.638 0.902,143.966 7.722,150.838 L37.14,180.5 L55.64,187.014 C54.826,183.938 54.338,180.97 54.256,178.34 L54.058,172.75 L53.988,53.15 L3.034,130.116 Z" fill="#0081C6"></path>
      <path d="M187.82,54.686 C184.744,53.9 181.794,53.414 179.12,53.33 L173.212,53.126 L53.988,53.142 L219.544,218.684 L219.558,218.684 L234.098,185.88 L187.82,54.686" fill="#0079B3"></path>
      <path d="M187.67,54.654 C187.734,54.668 187.784,54.686 187.826,54.692 L187.82,54.686 C187.784,54.668 187.734,54.668 187.67,54.654 L187.67,54.654 Z M214.118,68.732 C208.11,62.674 197.452,57.168 187.826,54.692 L234.098,185.88 L219.558,218.684 L219.544,218.684 L255.076,207.336 L255.152,109.92 L214.118,68.732 L214.118,68.732 Z" fill="#00A4E4"></path>
      <path d="M181.338,36.298 L151.684,6.862 C144.826,0.068 135.494,-2.046 130.984,2.178 L53.988,53.142 L173.212,53.126 L179.12,53.33 C181.794,53.414 184.744,53.9 187.82,54.686 L181.338,36.298 L181.338,36.298 Z" fill="#00D2B8"></path>
    </g>
  </symbol>
  <symbol version="1.1" xmlns="http://www.w3.org/2000/svg" xmlns:xlink="http://www.w3.org/1999/xlink" preserveAspectRatio="xMidYMid" viewBox="0 0 256 346" id="java">
    <g>
      <path d="M82.5539491,267.472524 C82.5539491,267.472524 69.35552,275.147869 91.9468218,277.745105 C119.315549,280.867375 133.303389,280.419607 163.463913,274.711273 C163.463913,274.711273 171.393396,279.683258 182.467491,283.989644 C114.855564,312.966982 29.4483782,282.311215 82.5539491,267.472524" fill="#5382A1"></path>
      <path d="M74.2921309,229.658996 C74.2921309,229.658996 59.4888145,240.616727 82.0968727,242.955171 C111.333004,245.971316 134.421411,246.218007 174.373236,238.524975 C174.373236,238.524975 179.899113,244.127185 188.588218,247.190807 C106.841367,271.094691 15.79008,249.075898 74.2921309,229.658996" fill="#5382A1"></path>
      <path d="M143.941818,165.514705 C160.601367,184.695156 139.564684,201.955142 139.564684,201.955142 C139.564684,201.955142 181.866124,180.117876 162.438982,152.772422 C144.294633,127.271098 130.380335,114.600495 205.706705,70.9138618 C205.706705,70.9138618 87.4691491,100.44416 143.941818,165.514705" fill="#E76F00"></path>
      <path d="M233.364015,295.441687 C233.364015,295.441687 243.131113,303.489396 222.60736,309.715316 C183.580858,321.537862 60.1748945,325.107898 25.8932364,310.186356 C13.5698618,304.825251 36.67968,297.385425 43.9491491,295.824291 C51.5304727,294.180305 55.8629236,294.486575 55.8629236,294.486575 C42.15808,284.832116 -32.7195927,313.443607 17.8287709,321.637469 C155.681513,343.993251 269.121164,311.570618 233.364015,295.441687" fill="#5382A1"></path>
      <path d="M88.9008873,190.479825 C88.9008873,190.479825 26.1287564,205.389265 66.6717091,210.803433 C83.7901964,213.095331 117.915462,212.576815 149.702284,209.913484 C175.680233,207.722124 201.765236,203.062924 201.765236,203.062924 C201.765236,203.062924 192.605091,206.985775 185.977949,211.510924 C122.233949,228.275665 -0.907636364,220.476509 34.5432436,203.328233 C64.5241018,188.83584 88.9008873,190.479825 88.9008873,190.479825" fill="#5382A1"></path>
      <path d="M201.506444,253.422313 C266.305164,219.7504 236.344785,187.392 215.432844,191.751447 C210.307258,192.818269 208.021876,193.742662 208.021876,193.742662 C208.021876,193.742662 209.924655,190.761891 213.558924,189.471651 C254.929455,174.927127 286.746065,232.368873 200.204102,255.11936 C200.204102,255.120291 201.206691,254.223825 201.506444,253.422313" fill="#5382A1"></path>
      <path d="M162.438982,0.371432727 C162.438982,0.371432727 198.325527,36.27008 128.402153,91.4720582 C72.3307055,135.753542 115.616116,161.001658 128.37888,189.848669 C95.6490473,160.318371 71.6297309,134.322735 87.7437673,110.128407 C111.395375,74.6132945 176.918342,57.3942691 162.438982,0.371432727" fill="#E76F00"></path>
      <path d="M95.2683055,344.665367 C157.466996,348.646865 252.980131,342.45632 255.24224,313.025629 C255.24224,313.025629 250.893964,324.182575 203.838371,333.042967 C150.750487,343.033484 85.2740655,341.867055 46.4393309,335.464262 C46.4402618,335.463331 54.3892945,342.043927 95.2683055,344.665367" fill="#5382A1"></path>
    </g>
  </symbol>
  <symbol xmlns="http://www.w3.org/2000/svg" aria-label="JavaScript" role="img" viewBox="0 0 512 512" id="js">
    <rect width="512" height="512" rx="15%" fill="#f7df1e"></rect>
    <path d="m324,370c10,17 24,29 47,29 20,0 33,-10 33,-24 0,-16 -13,-22 -35,-32l-12,-5c-35,-15 -58,-33 -58,-72 0,-36 27,-64 70,-64 31,0 53,11 68,39l-37,24c-8,-15 -17,-21 -31,-21 -14,0 -23,9 -23,21 0,14 9,20 30,29l12,5c41,18 64,35 64,76 0,43 -34,67 -80,67 -45,0 -74,-21 -88,-49zm-170,4c8,13 14,25 31,25 16,0 26,-6 26,-30V203h48v164c0,50 -29,72 -72,72 -39,0 -61,-20 -72,-44z"></path>
  </symbol>
  <symbol version="1.1" id="css" xmlns="http://www.w3.org/2000/svg" xmlns:xlink="http://www.w3.org/1999/xlink" x="0px" y="0px" xml:space="preserve" viewBox="0 0 512 512">
    <polygon points="32,0 72.8,460.8 256,512 439.136,460.832 480,0 "></polygon>
    <polygon points="392.768,150.688 387.616,208.576 372.064,382.112 256,414.208 255.904,414.24 
	139.904,382.112 131.808,291.36 188.64,291.36 192.864,338.432 255.936,355.456 255.968,355.424 319.136,338.4 327.744,259.968 
	129.088,260.512 123.456,206.88 332.512,204.416 336.736,147.008 117.856,147.616 114.176,94.208 256,94.208 397.824,94.208 "></polygon>
    <g></g>
    <g></g>
    <g></g>
    <g></g>
    <g></g>
    <g></g>
    <g></g>
    <g></g>
    <g></g>
    <g></g>
    <g></g>
    <g></g>
    <g></g>
    <g></g>
    <g></g>
  </symbol>
  <symbol version="1.1" id="html" xmlns="http://www.w3.org/2000/svg" xmlns:xlink="http://www.w3.org/1999/xlink" x="0px" y="0px" xml:space="preserve" viewBox="0 0 512 512">
    <polygon points="32,0 72.8,460.8 256,512 439.136,460.832 480,0 "></polygon>
    <polygon points="391.52,150.688 256,150.688 176.8,150.688 181.92,208.576 256,208.576 386.4,208.576 
	371.008,382.144 256,414.24 255.904,414.272 140.96,382.144 132.928,291.36 189.248,291.36 193.44,338.464 255.936,355.456 
	256,355.424 256,355.424 318.56,338.432 325.088,265.12 256,265.12 256,265.12 130.624,265.12 115.456,94.208 256,94.208 
	396.512,94.208 "></polygon>
    <g></g>
    <g></g>
    <g></g>
    <g></g>
    <g></g>
    <g></g>
    <g></g>
    <g></g>
    <g></g>
    <g></g>
    <g></g>
    <g></g>
    <g></g>
    <g></g>
    <g></g>
  </symbol>
</svg>